<?xml version="1.0" encoding="UTF-8" standalone="no"?>
<!DOCTYPE svg PUBLIC "-//W3C//DTD SVG 1.1//EN"
 "http://www.w3.org/Graphics/SVG/1.1/DTD/svg11.dtd">
<!-- Generated by graphviz version 2.50.0 (0)
 -->
<!-- Pages: 1 -->
<svg width="312pt" height="332pt"
 viewBox="0.00 0.00 312.44 332.00" xmlns="http://www.w3.org/2000/svg" xmlns:xlink="http://www.w3.org/1999/xlink">
<g id="graph0" class="graph" transform="scale(1 1) rotate(0) translate(4 328)">
<polygon fill="white" stroke="transparent" points="-4,4 -4,-328 308.44,-328 308.44,4 -4,4"/>
<!-- 1 -->
<g id="node1" class="node">
<title>1</title>
<ellipse fill="none" stroke="black" cx="130.25" cy="-90" rx="27" ry="18"/>
<text text-anchor="middle" x="130.25" y="-86.3" font-family="Times New Roman,serif" font-size="14.00">1</text>
</g>
<!-- 0 -->
<g id="node2" class="node">
<title>0</title>
<ellipse fill="none" stroke="black" cx="185.25" cy="-18" rx="27" ry="18"/>
<text text-anchor="middle" x="185.25" y="-14.3" font-family="Times New Roman,serif" font-size="14.00">0</text>
</g>
<!-- 1&#45;&gt;0 -->
<g id="edge1" class="edge">
<title>1&#45;&gt;0</title>
<path fill="none" stroke="black" d="M142.18,-73.81C149.46,-64.55 158.91,-52.52 167.1,-42.09"/>
<polygon fill="black" stroke="black" points="169.91,-44.18 173.34,-34.16 164.41,-39.86 169.91,-44.18"/>
</g>
<!-- 2 -->
<g id="node3" class="node">
<title>2</title>
<ellipse fill="none" stroke="black" cx="84.25" cy="-162" rx="27" ry="18"/>
<text text-anchor="middle" x="84.25" y="-158.3" font-family="Times New Roman,serif" font-size="14.00">2</text>
</g>
<!-- 2&#45;&gt;1 -->
<g id="edge3" class="edge">
<title>2&#45;&gt;1</title>
<path fill="none" stroke="black" d="M94.69,-145.12C100.45,-136.34 107.73,-125.26 114.2,-115.42"/>
<polygon fill="black" stroke="black" points="117.28,-117.1 119.85,-106.82 111.43,-113.26 117.28,-117.1"/>
</g>
<!-- 2&#45;&gt;0 -->
<g id="edge2" class="edge">
<title>2&#45;&gt;0</title>
<path fill="none" stroke="black" d="M81.86,-143.75C80.13,-124.63 80.15,-93.62 94.25,-72 107.55,-51.6 131.64,-38.08 151.7,-29.8"/>
<polygon fill="black" stroke="black" points="153.09,-33.02 161.16,-26.15 150.57,-26.49 153.09,-33.02"/>
</g>
<!-- 3 -->
<g id="node4" class="node">
<title>3</title>
<ellipse fill="none" stroke="black" cx="194.25" cy="-234" rx="27" ry="18"/>
<text text-anchor="middle" x="194.25" y="-230.3" font-family="Times New Roman,serif" font-size="14.00">3</text>
</g>
<!-- 3&#45;&gt;1 -->
<g id="edge5" class="edge">
<title>3&#45;&gt;1</title>
<path fill="none" stroke="black" d="M186.78,-216.43C175.75,-191.96 155,-145.91 141.94,-116.94"/>
<polygon fill="black" stroke="black" points="144.97,-115.14 137.67,-107.46 138.58,-118.02 144.97,-115.14"/>
</g>
<!-- 3&#45;&gt;0 -->
<g id="edge4" class="edge">
<title>3&#45;&gt;0</title>
<path fill="none" stroke="black" d="M217.14,-223.91C235.3,-215.42 259.66,-200.89 272.25,-180 297.09,-138.77 304.62,-113.5 280.25,-72 267.23,-49.83 241.19,-36.25 219.66,-28.39"/>
<polygon fill="black" stroke="black" points="220.74,-25.06 210.14,-25.18 218.5,-31.7 220.74,-25.06"/>
</g>
<!-- 3&#45;&gt;2 -->
<g id="edge6" class="edge">
<title>3&#45;&gt;2</title>
<path fill="none" stroke="black" d="M175.09,-220.81C157.58,-209.67 131.49,-193.06 111.75,-180.5"/>
<polygon fill="black" stroke="black" points="113.5,-177.47 103.19,-175.05 109.75,-183.37 113.5,-177.47"/>
</g>
<!-- 1_t&#45;1 -->
<g id="node5" class="node">
<title>1_t&#45;1</title>
<ellipse fill="none" stroke="black" cx="234.25" cy="-162" rx="29.5" ry="18"/>
<text text-anchor="middle" x="234.25" y="-158.3" font-family="Times New Roman,serif" font-size="14.00">1_t&#45;1</text>
</g>
<!-- 1_t&#45;1&#45;&gt;1 -->
<g id="edge7" class="edge">
<title>1_t&#45;1&#45;&gt;1</title>
<path fill="none" stroke="black" d="M215.17,-148.16C198.84,-137.17 175.16,-121.23 156.95,-108.97"/>
<polygon fill="black" stroke="black" points="158.75,-105.97 148.5,-103.29 154.85,-111.78 158.75,-105.97"/>
</g>
<!-- 1_t&#45;1&#45;&gt;0 -->
<g id="edge8" class="edge">
<title>1_t&#45;1&#45;&gt;0</title>
<path fill="none" stroke="black" d="M223.44,-144.93C217.02,-134.73 209.2,-121.05 204.25,-108 196.64,-87.97 191.77,-64.18 188.86,-46.24"/>
<polygon fill="black" stroke="black" points="192.29,-45.53 187.33,-36.17 185.37,-46.58 192.29,-45.53"/>
</g>
<!-- 0_t&#45;1 -->
<g id="node6" class="node">
<title>0_t&#45;1</title>
<ellipse fill="none" stroke="black" cx="242.25" cy="-90" rx="29.5" ry="18"/>
<text text-anchor="middle" x="242.25" y="-86.3" font-family="Times New Roman,serif" font-size="14.00">0_t&#45;1</text>
</g>
<!-- 0_t&#45;1&#45;&gt;0 -->
<g id="edge9" class="edge">
<title>0_t&#45;1&#45;&gt;0</title>
<path fill="none" stroke="black" d="M229.6,-73.46C222.14,-64.31 212.57,-52.55 204.23,-42.31"/>
<polygon fill="black" stroke="black" points="206.89,-40.04 197.86,-34.49 201.46,-44.46 206.89,-40.04"/>
</g>
<!-- 2_t&#45;1 -->
<g id="node7" class="node">
<title>2_t&#45;1</title>
<ellipse fill="none" stroke="black" cx="29.25" cy="-234" rx="29.5" ry="18"/>
<text text-anchor="middle" x="29.25" y="-230.3" font-family="Times New Roman,serif" font-size="14.00">2_t&#45;1</text>
</g>
<!-- 2_t&#45;1&#45;&gt;1 -->
<g id="edge12" class="edge">
<title>2_t&#45;1&#45;&gt;1</title>
<path fill="none" stroke="black" d="M29.12,-215.74C29.79,-196.6 33.36,-165.59 48.25,-144 60.51,-126.22 80.87,-113.01 98.24,-104.23"/>
<polygon fill="black" stroke="black" points="100,-107.27 107.51,-99.8 96.98,-100.95 100,-107.27"/>
</g>
<!-- 2_t&#45;1&#45;&gt;0 -->
<g id="edge11" class="edge">
<title>2_t&#45;1&#45;&gt;0</title>
<path fill="none" stroke="black" d="M26.56,-215.81C24.36,-197.54 22.7,-168.03 30.25,-144 41.85,-107.07 50.11,-97.48 79.25,-72 100.57,-53.36 129.6,-39.44 151.89,-30.56"/>
<polygon fill="black" stroke="black" points="153.22,-33.8 161.3,-26.95 150.71,-27.27 153.22,-33.8"/>
</g>
<!-- 2_t&#45;1&#45;&gt;2 -->
<g id="edge10" class="edge">
<title>2_t&#45;1&#45;&gt;2</title>
<path fill="none" stroke="black" d="M41.45,-217.46C48.57,-208.4 57.7,-196.79 65.7,-186.61"/>
<polygon fill="black" stroke="black" points="68.65,-188.52 72.08,-178.49 63.14,-184.19 68.65,-188.52"/>
</g>
<!-- 3_t&#45;1 -->
<g id="node8" class="node">
<title>3_t&#45;1</title>
<ellipse fill="none" stroke="black" cx="166.25" cy="-306" rx="29.5" ry="18"/>
<text text-anchor="middle" x="166.25" y="-302.3" font-family="Times New Roman,serif" font-size="14.00">3_t&#45;1</text>
</g>
<!-- 3_t&#45;1&#45;&gt;1 -->
<g id="edge15" class="edge">
<title>3_t&#45;1&#45;&gt;1</title>
<path fill="none" stroke="black" d="M163.36,-287.85C157.12,-250.74 142.32,-162.75 134.8,-118.05"/>
<polygon fill="black" stroke="black" points="138.21,-117.22 133.1,-107.94 131.3,-118.38 138.21,-117.22"/>
</g>
<!-- 3_t&#45;1&#45;&gt;0 -->
<g id="edge14" class="edge">
<title>3_t&#45;1&#45;&gt;0</title>
<path fill="none" stroke="black" d="M183.97,-291.51C197.18,-281.19 215.41,-266.33 230.25,-252 261.05,-222.26 277.38,-219.35 294.25,-180 306.9,-150.49 298.91,-140.08 300.25,-108 300.91,-92.01 308.87,-85.47 300.25,-72 283.01,-45.08 248.25,-31.64 221.43,-25.05"/>
<polygon fill="black" stroke="black" points="222.12,-21.62 211.6,-22.85 220.59,-28.45 222.12,-21.62"/>
</g>
<!-- 3_t&#45;1&#45;&gt;2 -->
<g id="edge16" class="edge">
<title>3_t&#45;1&#45;&gt;2</title>
<path fill="none" stroke="black" d="M153.07,-289.9C144.51,-279.64 133.45,-265.53 125.25,-252 112.97,-231.75 101.92,-207.2 94.39,-189.02"/>
<polygon fill="black" stroke="black" points="97.59,-187.59 90.59,-179.64 91.1,-190.23 97.59,-187.59"/>
</g>
<!-- 3_t&#45;1&#45;&gt;3 -->
<g id="edge13" class="edge">
<title>3_t&#45;1&#45;&gt;3</title>
<path fill="none" stroke="black" d="M172.88,-288.41C176.16,-280.22 180.19,-270.14 183.87,-260.95"/>
<polygon fill="black" stroke="black" points="187.2,-262.05 187.66,-251.47 180.7,-259.45 187.2,-262.05"/>
</g>
</g>
</svg>