<?xml version="1.0" encoding="UTF-8" standalone="no"?>
<!DOCTYPE svg PUBLIC "-//W3C//DTD SVG 1.1//EN"
 "http://www.w3.org/Graphics/SVG/1.1/DTD/svg11.dtd">
<!-- Generated by graphviz version 2.50.0 (0)
 -->
<!-- Pages: 1 -->
<svg width="160pt" height="332pt"
 viewBox="0.00 0.00 160.00 332.00" xmlns="http://www.w3.org/2000/svg" xmlns:xlink="http://www.w3.org/1999/xlink">
<g id="graph0" class="graph" transform="scale(1 1) rotate(0) translate(4 328)">
<polygon fill="white" stroke="transparent" points="-4,4 -4,-328 156,-328 156,4 -4,4"/>
<!-- 1 -->
<g id="node1" class="node">
<title>1</title>
<ellipse fill="none" stroke="black" cx="65" cy="-90" rx="27" ry="18"/>
<text text-anchor="middle" x="65" y="-86.3" font-family="Times New Roman,serif" font-size="14.00">1</text>
</g>
<!-- 0 -->
<g id="node2" class="node">
<title>0</title>
<ellipse fill="none" stroke="black" cx="92" cy="-18" rx="27" ry="18"/>
<text text-anchor="middle" x="92" y="-14.3" font-family="Times New Roman,serif" font-size="14.00">0</text>
</g>
<!-- 1&#45;&gt;0 -->
<g id="edge1" class="edge">
<title>1&#45;&gt;0</title>
<path fill="none" stroke="black" d="M71.4,-72.41C74.51,-64.34 78.33,-54.43 81.83,-45.35"/>
<polygon fill="black" stroke="black" points="85.13,-46.55 85.46,-35.96 78.6,-44.03 85.13,-46.55"/>
</g>
<!-- 2 -->
<g id="node3" class="node">
<title>2</title>
<ellipse fill="none" stroke="black" cx="27" cy="-162" rx="27" ry="18"/>
<text text-anchor="middle" x="27" y="-158.3" font-family="Times New Roman,serif" font-size="14.00">2</text>
</g>
<!-- 2&#45;&gt;1 -->
<g id="edge3" class="edge">
<title>2&#45;&gt;1</title>
<path fill="none" stroke="black" d="M35.81,-144.76C40.42,-136.28 46.16,-125.71 51.32,-116.2"/>
<polygon fill="black" stroke="black" points="54.54,-117.61 56.23,-107.15 48.39,-114.27 54.54,-117.61"/>
</g>
<!-- 2&#45;&gt;0 -->
<g id="edge2" class="edge">
<title>2&#45;&gt;0</title>
<path fill="none" stroke="black" d="M23.4,-143.97C20.33,-125.32 17.98,-95 29,-72 36.23,-56.92 50.01,-44.55 62.84,-35.57"/>
<polygon fill="black" stroke="black" points="65.04,-38.31 71.48,-29.9 61.2,-32.46 65.04,-38.31"/>
</g>
<!-- 3 -->
<g id="node4" class="node">
<title>3</title>
<ellipse fill="none" stroke="black" cx="98" cy="-234" rx="27" ry="18"/>
<text text-anchor="middle" x="98" y="-230.3" font-family="Times New Roman,serif" font-size="14.00">3</text>
</g>
<!-- 3&#45;&gt;1 -->
<g id="edge5" class="edge">
<title>3&#45;&gt;1</title>
<path fill="none" stroke="black" d="M94.08,-216.15C88.43,-191.81 77.91,-146.57 71.2,-117.67"/>
<polygon fill="black" stroke="black" points="74.58,-116.77 68.91,-107.82 67.76,-118.36 74.58,-116.77"/>
</g>
<!-- 3&#45;&gt;0 -->
<g id="edge4" class="edge">
<title>3&#45;&gt;0</title>
<path fill="none" stroke="black" d="M99.49,-215.57C101.77,-185.99 105.39,-124.09 101,-72 100.28,-63.5 98.93,-54.31 97.49,-46.01"/>
<polygon fill="black" stroke="black" points="100.91,-45.29 95.65,-36.09 94.03,-46.56 100.91,-45.29"/>
</g>
<!-- 3&#45;&gt;2 -->
<g id="edge6" class="edge">
<title>3&#45;&gt;2</title>
<path fill="none" stroke="black" d="M83.29,-218.5C73.39,-208.73 60.16,-195.69 49.01,-184.7"/>
<polygon fill="black" stroke="black" points="51.27,-182.01 41.69,-177.49 46.36,-187 51.27,-182.01"/>
</g>
<!-- 4 -->
<g id="node5" class="node">
<title>4</title>
<ellipse fill="none" stroke="black" cx="125" cy="-306" rx="27" ry="18"/>
<text text-anchor="middle" x="125" y="-302.3" font-family="Times New Roman,serif" font-size="14.00">4</text>
</g>
<!-- 4&#45;&gt;1 -->
<g id="edge8" class="edge">
<title>4&#45;&gt;1</title>
<path fill="none" stroke="black" d="M130.16,-288.01C134.87,-269.91 140.22,-240.54 134,-216 124.29,-177.69 99.92,-138.62 82.91,-114.59"/>
<polygon fill="black" stroke="black" points="85.71,-112.5 77.01,-106.45 80.04,-116.6 85.71,-112.5"/>
</g>
<!-- 4&#45;&gt;0 -->
<g id="edge7" class="edge">
<title>4&#45;&gt;0</title>
<path fill="none" stroke="black" d="M134.46,-288.92C139.89,-278.72 146.19,-265.03 149,-252 152.38,-236.36 150.85,-231.89 149,-216 141.39,-150.68 135.73,-134.41 115,-72 111.97,-62.87 107.98,-53.14 104.18,-44.55"/>
<polygon fill="black" stroke="black" points="107.35,-43.07 100.02,-35.41 100.98,-45.97 107.35,-43.07"/>
</g>
<!-- 4&#45;&gt;2 -->
<g id="edge9" class="edge">
<title>4&#45;&gt;2</title>
<path fill="none" stroke="black" d="M105.98,-292.84C92.19,-283.19 73.93,-268.6 62,-252 48.43,-233.11 39.23,-208.25 33.68,-189.61"/>
<polygon fill="black" stroke="black" points="37.05,-188.65 30.97,-179.97 30.31,-190.54 37.05,-188.65"/>
</g>
<!-- 4&#45;&gt;3 -->
<g id="edge10" class="edge">
<title>4&#45;&gt;3</title>
<path fill="none" stroke="black" d="M118.6,-288.41C115.49,-280.34 111.67,-270.43 108.17,-261.35"/>
<polygon fill="black" stroke="black" points="111.4,-260.03 104.54,-251.96 104.87,-262.55 111.4,-260.03"/>
</g>
</g>
</svg>