<?xml version="1.0" encoding="UTF-8" standalone="no"?>
<!DOCTYPE svg PUBLIC "-//W3C//DTD SVG 1.1//EN"
 "http://www.w3.org/Graphics/SVG/1.1/DTD/svg11.dtd">
<!-- Generated by graphviz version 2.50.0 (0)
 -->
<!-- Pages: 1 -->
<svg width="370pt" height="476pt"
 viewBox="0.00 0.00 369.53 476.00" xmlns="http://www.w3.org/2000/svg" xmlns:xlink="http://www.w3.org/1999/xlink">
<g id="graph0" class="graph" transform="scale(1 1) rotate(0) translate(4 472)">
<polygon fill="white" stroke="transparent" points="-4,4 -4,-472 365.53,-472 365.53,4 -4,4"/>
<!-- 1 -->
<g id="node1" class="node">
<title>1</title>
<ellipse fill="none" stroke="black" cx="209" cy="-90" rx="27" ry="18"/>
<text text-anchor="middle" x="209" y="-86.3" font-family="Times New Roman,serif" font-size="14.00">1</text>
</g>
<!-- 0 -->
<g id="node2" class="node">
<title>0</title>
<ellipse fill="none" stroke="black" cx="179" cy="-18" rx="27" ry="18"/>
<text text-anchor="middle" x="179" y="-14.3" font-family="Times New Roman,serif" font-size="14.00">0</text>
</g>
<!-- 1&#45;&gt;0 -->
<g id="edge1" class="edge">
<title>1&#45;&gt;0</title>
<path fill="none" stroke="black" d="M201.89,-72.41C198.34,-64.13 193.97,-53.92 190,-44.66"/>
<polygon fill="black" stroke="black" points="193.21,-43.28 186.06,-35.47 186.78,-46.04 193.21,-43.28"/>
</g>
<!-- 2 -->
<g id="node3" class="node">
<title>2</title>
<ellipse fill="none" stroke="black" cx="266" cy="-162" rx="27" ry="18"/>
<text text-anchor="middle" x="266" y="-158.3" font-family="Times New Roman,serif" font-size="14.00">2</text>
</g>
<!-- 2&#45;&gt;1 -->
<g id="edge3" class="edge">
<title>2&#45;&gt;1</title>
<path fill="none" stroke="black" d="M253.63,-145.81C246.09,-136.55 236.3,-124.52 227.81,-114.09"/>
<polygon fill="black" stroke="black" points="230.37,-111.7 221.34,-106.16 224.94,-116.12 230.37,-111.7"/>
</g>
<!-- 2&#45;&gt;0 -->
<g id="edge2" class="edge">
<title>2&#45;&gt;0</title>
<path fill="none" stroke="black" d="M265.25,-144C263.72,-125.09 259.06,-94.29 245,-72 235.67,-57.22 220.76,-44.73 207.47,-35.6"/>
<polygon fill="black" stroke="black" points="209.34,-32.63 199.05,-30.09 205.5,-38.49 209.34,-32.63"/>
</g>
<!-- 3 -->
<g id="node4" class="node">
<title>3</title>
<ellipse fill="none" stroke="black" cx="321" cy="-234" rx="27" ry="18"/>
<text text-anchor="middle" x="321" y="-230.3" font-family="Times New Roman,serif" font-size="14.00">3</text>
</g>
<!-- 3&#45;&gt;1 -->
<g id="edge5" class="edge">
<title>3&#45;&gt;1</title>
<path fill="none" stroke="black" d="M321.36,-215.93C320.92,-196.68 317.58,-165.3 302,-144 287.38,-124.02 262.8,-110.48 242.58,-102.09"/>
<polygon fill="black" stroke="black" points="243.65,-98.76 233.06,-98.38 241.11,-105.28 243.65,-98.76"/>
</g>
<!-- 3&#45;&gt;0 -->
<g id="edge4" class="edge">
<title>3&#45;&gt;0</title>
<path fill="none" stroke="black" d="M324.82,-216.05C328.17,-197.73 331.33,-167.94 323,-144 304.43,-90.61 246.57,-52.84 210.1,-33.59"/>
<polygon fill="black" stroke="black" points="211.37,-30.32 200.87,-28.88 208.19,-36.55 211.37,-30.32"/>
</g>
<!-- 3&#45;&gt;2 -->
<g id="edge6" class="edge">
<title>3&#45;&gt;2</title>
<path fill="none" stroke="black" d="M309.07,-217.81C301.79,-208.55 292.34,-196.52 284.15,-186.09"/>
<polygon fill="black" stroke="black" points="286.84,-183.86 277.91,-178.16 281.34,-188.18 286.84,-183.86"/>
</g>
<!-- 4 -->
<g id="node5" class="node">
<title>4</title>
<ellipse fill="none" stroke="black" cx="245" cy="-306" rx="27" ry="18"/>
<text text-anchor="middle" x="245" y="-302.3" font-family="Times New Roman,serif" font-size="14.00">4</text>
</g>
<!-- 4&#45;&gt;1 -->
<g id="edge8" class="edge">
<title>4&#45;&gt;1</title>
<path fill="none" stroke="black" d="M242.11,-287.85C235.87,-250.74 221.07,-162.75 213.55,-118.05"/>
<polygon fill="black" stroke="black" points="216.96,-117.22 211.85,-107.94 210.06,-118.38 216.96,-117.22"/>
</g>
<!-- 4&#45;&gt;0 -->
<g id="edge7" class="edge">
<title>4&#45;&gt;0</title>
<path fill="none" stroke="black" d="M236.79,-288.68C220.67,-255.62 185.38,-177.92 173,-108 169.34,-87.32 171.24,-63.57 173.84,-45.81"/>
<polygon fill="black" stroke="black" points="177.31,-46.29 175.46,-35.86 170.4,-45.17 177.31,-46.29"/>
</g>
<!-- 4&#45;&gt;2 -->
<g id="edge9" class="edge">
<title>4&#45;&gt;2</title>
<path fill="none" stroke="black" d="M247.53,-287.87C251.11,-263.67 257.69,-219.21 261.95,-190.39"/>
<polygon fill="black" stroke="black" points="265.46,-190.59 263.46,-180.19 258.53,-189.57 265.46,-190.59"/>
</g>
<!-- 4&#45;&gt;3 -->
<g id="edge10" class="edge">
<title>4&#45;&gt;3</title>
<path fill="none" stroke="black" d="M260.38,-290.83C271.2,-280.87 285.86,-267.37 298.05,-256.14"/>
<polygon fill="black" stroke="black" points="300.66,-258.49 305.64,-249.14 295.92,-253.34 300.66,-258.49"/>
</g>
<!-- 5 -->
<g id="node6" class="node">
<title>5</title>
<ellipse fill="none" stroke="black" cx="190" cy="-378" rx="27" ry="18"/>
<text text-anchor="middle" x="190" y="-374.3" font-family="Times New Roman,serif" font-size="14.00">5</text>
</g>
<!-- 5&#45;&gt;1 -->
<g id="edge12" class="edge">
<title>5&#45;&gt;1</title>
<path fill="none" stroke="black" d="M190.88,-359.93C191.83,-342.01 193.41,-313.02 195,-288 198.85,-227.42 204.07,-156.42 206.93,-118.38"/>
<polygon fill="black" stroke="black" points="210.44,-118.36 207.7,-108.12 203.46,-117.83 210.44,-118.36"/>
</g>
<!-- 5&#45;&gt;0 -->
<g id="edge11" class="edge">
<title>5&#45;&gt;0</title>
<path fill="none" stroke="black" d="M187.96,-360.04C182.97,-317.64 170.25,-203.55 166,-108 165.29,-92.02 164.08,-87.88 166,-72 167.04,-63.4 168.99,-54.19 171.08,-45.89"/>
<polygon fill="black" stroke="black" points="174.52,-46.56 173.73,-35.99 167.76,-44.75 174.52,-46.56"/>
</g>
<!-- 5&#45;&gt;2 -->
<g id="edge13" class="edge">
<title>5&#45;&gt;2</title>
<path fill="none" stroke="black" d="M192.5,-359.98C195.43,-341.85 200.92,-312.45 209,-288 220.82,-252.21 239.77,-212.98 252.54,-188.19"/>
<polygon fill="black" stroke="black" points="255.75,-189.61 257.27,-179.12 249.54,-186.37 255.75,-189.61"/>
</g>
<!-- 5&#45;&gt;3 -->
<g id="edge14" class="edge">
<title>5&#45;&gt;3</title>
<path fill="none" stroke="black" d="M213.25,-368.26C233.44,-359.66 262.29,-344.79 281,-324 297.14,-306.07 307.7,-280.55 313.9,-261.43"/>
<polygon fill="black" stroke="black" points="317.26,-262.41 316.82,-251.82 310.56,-260.37 317.26,-262.41"/>
</g>
<!-- 5&#45;&gt;4 -->
<g id="edge15" class="edge">
<title>5&#45;&gt;4</title>
<path fill="none" stroke="black" d="M201.93,-361.81C209.21,-352.55 218.66,-340.52 226.85,-330.09"/>
<polygon fill="black" stroke="black" points="229.66,-332.18 233.09,-322.16 224.16,-327.86 229.66,-332.18"/>
</g>
<!-- 6 -->
<g id="node7" class="node">
<title>6</title>
<ellipse fill="none" stroke="black" cx="217" cy="-450" rx="27" ry="18"/>
<text text-anchor="middle" x="217" y="-446.3" font-family="Times New Roman,serif" font-size="14.00">6</text>
</g>
<!-- 6&#45;&gt;1 -->
<g id="edge17" class="edge">
<title>6&#45;&gt;1</title>
<path fill="none" stroke="black" d="M196.36,-438.16C181.53,-429.1 162.69,-414.66 154,-396 109.01,-299.37 166.59,-169.65 194.93,-115.91"/>
<polygon fill="black" stroke="black" points="198.03,-117.55 199.69,-107.08 191.87,-114.22 198.03,-117.55"/>
</g>
<!-- 6&#45;&gt;0 -->
<g id="edge16" class="edge">
<title>6&#45;&gt;0</title>
<path fill="none" stroke="black" d="M190.82,-444.6C133.11,-433.24 0,-397.27 0,-307 0,-307 0,-307 0,-161 0,-87.93 92.69,-46.49 144.67,-29"/>
<polygon fill="black" stroke="black" points="146.05,-32.23 154.49,-25.81 143.89,-25.57 146.05,-32.23"/>
</g>
<!-- 6&#45;&gt;2 -->
<g id="edge18" class="edge">
<title>6&#45;&gt;2</title>
<path fill="none" stroke="black" d="M237.05,-437.85C252.74,-428.34 274.3,-413.45 289,-396 334.59,-341.86 342.31,-321.24 357,-252 360.32,-236.35 364.97,-229.87 357,-216 344.86,-194.89 320.72,-181.4 300.35,-173.31"/>
<polygon fill="black" stroke="black" points="301.32,-169.94 290.72,-169.77 298.9,-176.51 301.32,-169.94"/>
</g>
<!-- 6&#45;&gt;3 -->
<g id="edge19" class="edge">
<title>6&#45;&gt;3</title>
<path fill="none" stroke="black" d="M231.02,-434.2C251.1,-412.1 287.64,-368.3 306,-324 314.19,-304.25 317.91,-280.27 319.6,-262.18"/>
<polygon fill="black" stroke="black" points="323.1,-262.27 320.39,-252.02 316.12,-261.72 323.1,-262.27"/>
</g>
<!-- 6&#45;&gt;4 -->
<g id="edge20" class="edge">
<title>6&#45;&gt;4</title>
<path fill="none" stroke="black" d="M220.38,-431.87C225.17,-407.56 233.99,-362.82 239.67,-334.01"/>
<polygon fill="black" stroke="black" points="243.11,-334.68 241.61,-324.19 236.24,-333.32 243.11,-334.68"/>
</g>
<!-- 6&#45;&gt;5 -->
<g id="edge21" class="edge">
<title>6&#45;&gt;5</title>
<path fill="none" stroke="black" d="M210.6,-432.41C207.49,-424.34 203.67,-414.43 200.17,-405.35"/>
<polygon fill="black" stroke="black" points="203.4,-404.03 196.54,-395.96 196.87,-406.55 203.4,-404.03"/>
</g>
</g>
</svg>