<?xml version="1.0" encoding="UTF-8" standalone="no"?>
<!DOCTYPE svg PUBLIC "-//W3C//DTD SVG 1.1//EN"
 "http://www.w3.org/Graphics/SVG/1.1/DTD/svg11.dtd">
<!-- Generated by graphviz version 2.50.0 (0)
 -->
<!-- Pages: 1 -->
<svg width="122pt" height="260pt"
 viewBox="0.00 0.00 122.47 260.00" xmlns="http://www.w3.org/2000/svg" xmlns:xlink="http://www.w3.org/1999/xlink">
<g id="graph0" class="graph" transform="scale(1 1) rotate(0) translate(4 256)">
<polygon fill="white" stroke="transparent" points="-4,4 -4,-256 118.47,-256 118.47,4 -4,4"/>
<!-- 1 -->
<g id="node1" class="node">
<title>1</title>
<ellipse fill="none" stroke="black" cx="41.47" cy="-90" rx="27" ry="18"/>
<text text-anchor="middle" x="41.47" y="-86.3" font-family="Times New Roman,serif" font-size="14.00">1</text>
</g>
<!-- 0 -->
<g id="node2" class="node">
<title>0</title>
<ellipse fill="none" stroke="black" cx="41.47" cy="-18" rx="27" ry="18"/>
<text text-anchor="middle" x="41.47" y="-14.3" font-family="Times New Roman,serif" font-size="14.00">0</text>
</g>
<!-- 1&#45;&gt;0 -->
<g id="edge1" class="edge">
<title>1&#45;&gt;0</title>
<path fill="none" stroke="black" d="M41.47,-71.7C41.47,-63.98 41.47,-54.71 41.47,-46.11"/>
<polygon fill="black" stroke="black" points="44.97,-46.1 41.47,-36.1 37.97,-46.1 44.97,-46.1"/>
</g>
<!-- 2 -->
<g id="node3" class="node">
<title>2</title>
<ellipse fill="none" stroke="black" cx="87.47" cy="-162" rx="27" ry="18"/>
<text text-anchor="middle" x="87.47" y="-158.3" font-family="Times New Roman,serif" font-size="14.00">2</text>
</g>
<!-- 2&#45;&gt;1 -->
<g id="edge3" class="edge">
<title>2&#45;&gt;1</title>
<path fill="none" stroke="black" d="M77.04,-145.12C71.27,-136.34 63.99,-125.26 57.52,-115.42"/>
<polygon fill="black" stroke="black" points="60.29,-113.26 51.87,-106.82 54.44,-117.1 60.29,-113.26"/>
</g>
<!-- 2&#45;&gt;0 -->
<g id="edge2" class="edge">
<title>2&#45;&gt;0</title>
<path fill="none" stroke="black" d="M87.95,-143.71C87.92,-125.35 86.27,-95.77 77.47,-72 73.6,-61.52 67.21,-51.09 60.89,-42.3"/>
<polygon fill="black" stroke="black" points="63.51,-39.97 54.69,-34.11 57.94,-44.2 63.51,-39.97"/>
</g>
<!-- 3 -->
<g id="node4" class="node">
<title>3</title>
<ellipse fill="none" stroke="black" cx="32.47" cy="-234" rx="27" ry="18"/>
<text text-anchor="middle" x="32.47" y="-230.3" font-family="Times New Roman,serif" font-size="14.00">3</text>
</g>
<!-- 3&#45;&gt;1 -->
<g id="edge5" class="edge">
<title>3&#45;&gt;1</title>
<path fill="none" stroke="black" d="M33.56,-215.87C35.09,-191.67 37.91,-147.21 39.74,-118.39"/>
<polygon fill="black" stroke="black" points="43.24,-118.39 40.38,-108.19 36.26,-117.95 43.24,-118.39"/>
</g>
<!-- 3&#45;&gt;0 -->
<g id="edge4" class="edge">
<title>3&#45;&gt;0</title>
<path fill="none" stroke="black" d="M24.86,-216.68C12.18,-187.23 -10.35,-123.47 5.47,-72 8.76,-61.31 15.01,-50.85 21.4,-42.08"/>
<polygon fill="black" stroke="black" points="24.36,-43.98 27.72,-33.93 18.83,-39.69 24.36,-43.98"/>
</g>
<!-- 3&#45;&gt;2 -->
<g id="edge6" class="edge">
<title>3&#45;&gt;2</title>
<path fill="none" stroke="black" d="M44.41,-217.81C51.69,-208.55 61.14,-196.52 69.33,-186.09"/>
<polygon fill="black" stroke="black" points="72.14,-188.18 75.56,-178.16 66.63,-183.86 72.14,-188.18"/>
</g>
</g>
</svg>